<svg width="226" height="261" viewBox="0 0 226 261" fill="none" xmlns="http://www.w3.org/2000/svg">
<path d="M172.448 28.9708V9.40609C172.448 4.26409 168.183 0 163.041 0C157.899 0 153.635 4.26409 153.635 9.40609V28.2183H72.1163V9.40609C72.1163 4.26409 67.8522 0 62.7102 0C57.5682 0 53.3041 4.26409 53.3041 9.40609V28.9708C19.4422 32.1061 3.01285 52.2979 0.504561 82.2719C0.253732 85.9089 3.26368 88.9189 6.77529 88.9189H218.976C222.613 88.9189 225.623 85.7835 225.247 82.2719C222.739 52.2979 206.309 32.1061 172.448 28.9708Z" fill="#000"/>
<path d="M213.205 107.729H12.5415C5.64365 107.729 0 113.372 0 120.27V197.525C0 235.15 18.8122 260.233 62.7073 260.233H163.039C206.934 260.233 225.746 235.15 225.746 197.525V120.27C225.746 113.372 220.103 107.729 213.205 107.729ZM77.8824 212.701C77.2554 213.202 76.6283 213.829 76.0012 214.206C75.2487 214.707 74.4962 215.083 73.7437 215.334C72.9913 215.711 72.2388 215.961 71.4863 216.087C70.6084 216.212 69.8559 216.338 68.978 216.338C67.3476 216.338 65.7172 215.961 64.2122 215.334C62.5819 214.707 61.3277 213.829 60.0736 212.701C57.8161 210.318 56.4365 207.057 56.4365 203.796C56.4365 200.535 57.8161 197.275 60.0736 194.892C61.3277 193.763 62.5819 192.885 64.2122 192.258C66.4697 191.255 68.978 191.004 71.4863 191.506C72.2388 191.631 72.9913 191.882 73.7437 192.258C74.4962 192.509 75.2487 192.885 76.0012 193.387C76.6283 193.888 77.2554 194.39 77.8824 194.892C80.1399 197.275 81.5194 200.535 81.5194 203.796C81.5194 207.057 80.1399 210.318 77.8824 212.701ZM77.8824 168.806C75.4995 171.063 72.2388 172.443 68.978 172.443C65.7172 172.443 62.4564 171.063 60.0736 168.806C57.8161 166.423 56.4365 163.162 56.4365 159.901C56.4365 156.64 57.8161 153.38 60.0736 150.997C63.5852 147.485 69.1034 146.356 73.7437 148.363C75.3741 148.99 76.7537 149.868 77.8824 150.997C80.1399 153.38 81.5194 156.64 81.5194 159.901C81.5194 163.162 80.1399 166.423 77.8824 168.806ZM121.778 212.701C119.395 214.958 116.134 216.338 112.873 216.338C109.612 216.338 106.352 214.958 103.969 212.701C101.711 210.318 100.332 207.057 100.332 203.796C100.332 200.535 101.711 197.275 103.969 194.892C108.609 190.251 117.137 190.251 121.778 194.892C124.035 197.275 125.415 200.535 125.415 203.796C125.415 207.057 124.035 210.318 121.778 212.701ZM121.778 168.806C121.15 169.307 120.523 169.809 119.896 170.31C119.144 170.812 118.391 171.188 117.639 171.439C116.886 171.815 116.134 172.066 115.381 172.192C114.503 172.317 113.751 172.443 112.873 172.443C109.612 172.443 106.352 171.063 103.969 168.806C101.711 166.423 100.332 163.162 100.332 159.901C100.332 156.64 101.711 153.38 103.969 150.997C105.097 149.868 106.477 148.99 108.107 148.363C112.748 146.356 118.266 147.485 121.778 150.997C124.035 153.38 125.415 156.64 125.415 159.901C125.415 163.162 124.035 166.423 121.778 168.806ZM165.673 212.701C163.29 214.958 160.029 216.338 156.768 216.338C153.507 216.338 150.247 214.958 147.864 212.701C145.606 210.318 144.227 207.057 144.227 203.796C144.227 200.535 145.606 197.275 147.864 194.892C152.504 190.251 161.032 190.251 165.673 194.892C167.93 197.275 169.31 200.535 169.31 203.796C169.31 207.057 167.93 210.318 165.673 212.701ZM165.673 168.806C165.046 169.307 164.418 169.809 163.791 170.31C163.039 170.812 162.286 171.188 161.534 171.439C160.781 171.815 160.029 172.066 159.276 172.192C158.399 172.317 157.521 172.443 156.768 172.443C153.507 172.443 150.247 171.063 147.864 168.806C145.606 166.423 144.227 163.162 144.227 159.901C144.227 156.64 145.606 153.38 147.864 150.997C149.118 149.868 150.372 148.99 152.002 148.363C154.26 147.36 156.768 147.109 159.276 147.61C160.029 147.736 160.781 147.987 161.534 148.363C162.286 148.614 163.039 148.99 163.791 149.492L165.673 150.997C167.93 153.38 169.31 156.64 169.31 159.901C169.31 163.162 167.93 166.423 165.673 168.806Z" fill="#000"/>
</svg>
