<svg width="3046" height="898" viewBox="0 0 3046 898" fill="none" xmlns="http://www.w3.org/2000/svg">
<path fill-rule="evenodd" clip-rule="evenodd" d="M3046 591V169.353L3019.62 160.7C3018.45 160.316 3017.42 159.728 3016.68 159.024C3015.95 158.321 3015.55 157.54 3015.54 156.8V112.618C3015.54 110.879 3014.95 109.179 3013.87 107.772C3012.78 106.366 3011.25 105.33 3009.51 104.818L2855.56 59.4779C2855.23 59.3797 2854.87 59.3483 2854.53 59.3861C2854.19 59.424 2853.86 59.5301 2853.58 59.6958C2853.3 59.8616 2853.08 60.0825 2852.93 60.341C2852.83 60.5 2852.77 60.6706 2852.73 60.8473C2852.71 60.9577 2852.7 61.0705 2852.7 61.1842L2852.64 152.229C2852.64 152.939 2852.48 153.641 2852.17 154.296C2851.86 154.95 2851.41 155.544 2850.84 156.043C2850.26 156.542 2849.59 156.935 2848.84 157.201C2848.09 157.467 2847.29 157.6 2846.49 157.592L2809.94 157.287C2809.52 157.279 2809.11 157.378 2808.73 157.579C2808.35 157.781 2808 158.08 2807.7 158.46C2807.41 158.84 2807.17 159.293 2807.01 159.793C2806.94 160.014 2806.89 160.242 2806.85 160.475C2806.79 160.768 2806.77 161.068 2806.77 161.37L2806.95 272.586C2806.95 274.05 2806.78 275.411 2806.45 276.488C2806.12 277.566 2805.66 278.309 2805.12 278.62C2797.93 282.682 2790.38 283.231 2782.46 280.265C2781.79 280.02 2781.2 279.44 2780.79 278.609C2780.37 277.778 2780.15 276.737 2780.15 275.633L2779.54 208.599C2779.54 207.969 2779.21 207.364 2778.63 206.918C2778.04 206.473 2777.25 206.222 2776.43 206.222L2656.54 205.613C2655.37 205.593 2654.26 205.062 2653.43 204.13C2652.6 203.198 2652.12 201.939 2652.09 200.616L2650.99 153.814C2650.97 152.873 2650.69 151.98 2650.22 151.322C2649.76 150.663 2649.14 150.29 2648.5 150.279L2578.44 149.974C2577.64 149.966 2576.85 150.177 2576.12 150.596C2575.38 151.015 2574.71 151.633 2574.14 152.414C2573.57 153.196 2573.12 154.126 2572.82 155.151C2572.51 156.175 2572.35 157.274 2572.35 158.384V200.981C2572.35 201.704 2572.05 202.417 2571.51 203.004C2570.97 203.591 2570.21 204.017 2569.36 204.211C2561.16 206.04 2553.04 206.019 2544.99 204.15C2544.78 204.102 2544.56 204.088 2544.34 204.108C2544.19 204.121 2544.04 204.15 2543.89 204.195C2543.58 204.289 2543.29 204.451 2543.03 204.672C2542.98 204.709 2542.94 204.747 2542.9 204.788C2542.6 205.068 2542.37 205.419 2542.2 205.814C2542.04 206.21 2541.95 206.641 2541.95 207.076L2542.07 272.586C2542.07 279.859 2537.74 282.56 2529.09 280.692C2524.22 279.676 2519.18 279.818 2513.99 281.118C2513.29 281.297 2512.67 281.795 2512.22 282.534C2511.76 283.272 2511.51 284.21 2511.49 285.201C2511.49 288.519 2511.6 295.252 2511.74 304.12C2512.23 334.898 2513.14 391.389 2511.37 420H2493.15V284.775C2493.15 282.899 2492.41 281.097 2491.07 279.753C2489.74 278.41 2487.93 277.631 2486.02 277.584C2471.28 277.272 2471.31 276.562 2471.64 268.708C2471.7 267.343 2471.77 265.764 2471.77 263.933C2471.85 201.936 2471.85 139.939 2471.77 77.9428C2471.77 76.7791 2471.63 75.7017 2471.38 74.8153C2471.12 73.9291 2470.75 73.2641 2470.31 72.8848C2467.5 70.4472 2464.46 70.0409 2461.17 71.6659C2460.33 72.0862 2459.39 72.281 2458.45 72.2339C2457.51 72.1867 2456.58 71.8988 2455.76 71.395C2454.93 70.8914 2454.22 70.1868 2453.7 69.3422C2453.18 68.4976 2452.86 67.5384 2452.76 66.547C2445.27 -6.52048 2346.21 -6.76438 2332.14 62.0374C2330.74 69.1065 2326.05 74.4082 2318.68 70.3252C2318.15 70.0412 2317.56 69.8986 2316.96 69.9116C2316.36 69.9247 2315.77 70.0928 2315.26 70.3996C2314.74 70.7064 2314.31 71.1415 2314.02 71.6624C2313.72 72.1834 2313.56 72.7725 2313.56 73.3723V270.697C2313.56 272.411 2312.9 274.053 2311.74 275.265C2310.57 276.476 2308.99 277.157 2307.34 277.157H2278.41C2277.58 277.165 2276.78 277.648 2276.19 278.503C2275.6 279.357 2275.26 280.515 2275.24 281.728L2274.75 317.195C2274.75 318.251 2274.34 319.265 2273.6 320.017C2272.86 320.77 2271.85 321.201 2270.79 321.217L2244.9 321.522C2244.12 321.534 2243.3 321.186 2242.57 320.53C2241.84 319.873 2241.22 318.94 2240.82 317.865L2231.26 292.392C2230.91 291.477 2230.29 290.686 2229.46 290.121C2228.64 289.556 2227.65 289.243 2226.63 289.223L2192.69 288.736C2191.99 288.718 2191.32 288.293 2190.83 287.552C2190.34 286.811 2190.07 285.813 2190.07 284.775V242.116C2190.07 241.495 2189.99 240.878 2189.83 240.304C2189.67 239.73 2189.44 239.21 2189.15 238.776C2188.85 238.343 2188.51 238.005 2188.14 237.782C2187.76 237.56 2187.36 237.459 2186.97 237.485L2174.54 238.399C2174.19 238.427 2173.84 238.345 2173.51 238.158C2173.18 237.971 2172.87 237.683 2172.61 237.311C2172.36 236.94 2172.15 236.493 2172.01 235.998C2171.87 235.504 2171.8 234.973 2171.8 234.438L2171.74 213.17C2171.74 211.913 2171.56 210.741 2171.22 209.762C2170.88 208.782 2170.39 208.026 2169.79 207.563C2167.07 205.369 2164.35 205.369 2161.62 207.563C2161.02 208.026 2160.53 208.782 2160.19 209.762C2159.85 210.741 2159.67 211.913 2159.68 213.17L2159.61 234.499C2159.61 235.307 2159.13 236.082 2158.28 236.653C2157.42 237.225 2156.26 237.546 2155.04 237.546H2077.37C2076.54 237.545 2075.75 237.864 2075.15 238.434C2074.56 239.004 2074.22 239.779 2074.2 240.593L2073.84 282.093C2073.83 283.134 2073.6 284.163 2073.16 285.121C2072.72 286.08 2072.08 286.949 2071.28 287.679C2070.48 288.409 2069.53 288.985 2068.48 289.376C2067.44 289.767 2066.32 289.963 2065.19 289.954L1949.44 288.918C1948.4 288.916 1947.39 289.244 1946.54 289.855C1945.69 290.466 1945.04 291.332 1944.69 292.331L1935.55 316.707C1935.14 317.825 1934.54 318.799 1933.81 319.489C1933.09 320.179 1932.29 320.549 1931.53 320.547L1905.27 320.973C1904.44 320.982 1903.61 320.841 1902.84 320.558C1902.07 320.274 1901.37 319.855 1900.77 319.323C1900.18 318.791 1899.71 318.157 1899.38 317.457C1899.05 316.757 1898.88 316.006 1898.88 315.245L1897.84 173.558C1897.83 172.178 1897.56 170.807 1897.06 169.545C1896.55 168.284 1895.83 167.163 1894.93 166.265C1894.03 165.366 1892.99 164.713 1891.87 164.351C1890.75 163.989 1889.58 163.929 1888.46 164.173C1874.57 167.139 1869.61 162.203 1873.59 149.365C1875.79 142.377 1873.68 139.716 1867.26 141.382C1862.63 142.601 1858.93 141.808 1856.17 139.005C1855.38 138.173 1854.74 137.297 1854.29 136.429C1853.84 135.561 1853.59 134.717 1853.55 133.947C1853.35 130.575 1852.46 127.406 1850.87 124.44C1850.43 123.63 1849.73 122.953 1848.85 122.481C1847.97 122.009 1846.94 121.76 1845.88 121.759L1813.83 121.82C1812.42 121.814 1811.06 121.301 1810.03 120.386C1809 119.47 1808.38 118.219 1808.29 116.884C1808.16 115.13 1807.86 110.857 1807.44 104.93C1805.29 74.3924 1800.05 -0.0509992 1799.33 2.62174e-05C1798.64 0.0670428 1797.98 0.555202 1797.47 1.37356C1796.97 2.19192 1796.66 3.28469 1796.59 4.44876L1789.52 115.665C1789.42 117.321 1788.57 118.873 1787.15 120.005C1785.74 121.138 1783.86 121.765 1781.91 121.759H1748.4C1747.93 121.756 1747.47 121.875 1747.04 122.108C1746.62 122.342 1746.24 122.684 1745.94 123.112C1745.64 123.54 1745.42 124.043 1745.3 124.588C1745.18 125.133 1745.16 125.706 1745.24 126.269C1746.86 138.132 1741.84 143.21 1730.19 141.504C1729.54 141.401 1728.89 141.39 1728.26 141.472C1727.63 141.554 1727.05 141.726 1726.55 141.979C1726.05 142.231 1725.65 142.558 1725.36 142.938C1725.07 143.318 1724.91 143.743 1724.89 144.185L1724.16 159.847C1724.11 161.072 1723.75 162.232 1723.16 163.083C1722.57 163.935 1721.79 164.413 1720.99 164.417H1705.76C1705.01 164.426 1704.28 164.907 1703.72 165.758C1703.17 166.609 1702.83 167.766 1702.77 168.988C1700.46 232.975 1700.68 296.963 1703.45 360.95C1703.51 362.455 1703.41 363.869 1703.14 364.963C1702.88 366.057 1702.47 366.769 1701.98 366.983C1695.32 369.949 1688.3 370.599 1680.9 368.933C1680.18 368.756 1679.53 368.169 1679.07 367.271C1678.6 366.373 1678.35 365.218 1678.35 363.997V325.909C1678.35 324.614 1678.08 323.388 1677.61 322.444C1677.13 321.499 1676.46 320.892 1675.73 320.729L1667.26 318.84C1666.74 318.722 1666.26 318.488 1665.85 318.155C1665.44 317.822 1665.1 317.398 1664.86 316.912C1664.63 316.425 1664.49 315.889 1664.48 315.338C1664.46 314.787 1664.56 314.235 1664.76 313.721C1665.65 311.324 1665.45 308.907 1664.15 306.469C1663.77 305.742 1663.04 305.131 1662.05 304.709C1661.05 304.287 1659.84 304.073 1658.55 304.093L1594.58 305.19C1594.19 305.194 1593.81 305.162 1593.44 305.094C1593.26 305.061 1593.08 305.02 1592.91 304.971C1592.38 304.821 1591.89 304.596 1591.49 304.312C1591.09 304.027 1590.77 303.689 1590.56 303.316C1590.34 302.943 1590.24 302.544 1590.26 302.143L1590.74 283.434C1590.78 282.206 1590.55 280.984 1590.08 279.84C1589.6 278.696 1588.9 277.653 1587.99 276.773C1587.09 275.893 1586.01 275.193 1584.82 274.715C1583.63 274.236 1582.35 273.989 1581.06 273.988L1558.09 274.11C1557.06 274.111 1556.07 273.712 1555.3 272.991C1554.54 272.27 1554.05 271.279 1553.95 270.21C1553.72 267.654 1553.81 263.923 1553.89 259.862C1554.07 251.724 1554.27 242.261 1552.12 238.277C1541.22 218.386 1541.19 256.578 1541.19 267.186C1541.18 268.668 1541.18 269.611 1541.15 269.783C1540.97 271.033 1540.54 272.182 1539.96 273.012C1539.38 273.843 1538.67 274.299 1537.99 274.293C1528.12 274.333 1524.79 269.194 1528 258.875C1528.13 258.464 1528.15 258.023 1528.05 257.579C1527.95 257.136 1527.73 256.699 1527.41 256.298C1527.09 255.896 1526.67 255.539 1526.19 255.248C1525.7 254.957 1525.15 254.74 1524.58 254.609C1514.71 252.253 1511.14 255.178 1513.86 263.385C1514.26 264.6 1514.36 265.891 1514.16 267.153C1513.97 268.415 1513.48 269.611 1512.74 270.645C1511.99 271.679 1511.02 272.521 1509.89 273.102C1508.76 273.683 1507.51 273.986 1506.25 273.988L1452.94 274.11C1451.73 274.11 1450.57 274.437 1449.71 275.02C1448.85 275.603 1448.37 276.394 1448.37 277.218V295.439C1448.37 296.866 1448.24 298.18 1447.98 299.258C1447.73 300.335 1447.36 301.139 1446.91 301.594C1443.95 304.479 1440.37 306.002 1436.19 306.165C1433.59 306.286 1431.54 306.774 1430.04 307.627C1426.99 309.334 1425 311.893 1424.07 315.306C1423.88 316.019 1423.38 316.711 1422.62 317.304C1421.85 317.896 1420.86 318.365 1419.74 318.657C1399.11 324.101 1391.33 316.91 1396.41 297.084C1398.89 287.456 1395.45 283.048 1386.11 283.86C1372.11 285.074 1358.73 281.737 1346.59 278.71C1339.83 277.024 1333.45 275.434 1327.57 274.78C1308.07 272.586 1289.23 271.286 1271.03 270.88C1268.48 270.816 1266.04 269.729 1264.25 267.85C1262.47 265.971 1261.47 263.45 1261.47 260.825L1261.04 153.814C1261.05 151.982 1260.41 150.217 1259.25 148.856C1258.1 147.496 1256.5 146.635 1254.77 146.44C1240.45 144.612 1213.34 106.463 1206.22 93.8483C1204.99 91.6752 1203.41 90.0471 1201.71 89.2168C1171.78 74.9162 1151.85 83.204 1141.95 114.08C1141.28 116.111 1140.25 117.682 1139.08 118.468L1121.54 130.108C1120.82 130.589 1120.27 131.324 1119.97 132.216C1119.66 133.107 1119.62 134.114 1119.83 135.105C1121.88 145.032 1115.95 144.834 1110.04 144.637C1107.53 144.554 1105.03 144.47 1103.14 145.16C1102.32 145.442 1101.6 146.009 1101.09 146.783C1100.58 147.557 1100.29 148.501 1100.28 149.487C1098.73 223.143 1097.31 296.82 1096.01 370.518C1095.83 380.695 1088.64 388.19 1080.17 378.196C1078.95 376.782 1078.28 374.987 1078.28 373.138L1078.34 248.088C1078.34 239.191 1073.96 235.799 1065.19 237.911C1044.04 243.014 1044.77 232.261 1045.6 220.015C1045.93 215.15 1046.27 210.049 1045.27 205.613C1045.06 204.731 1044.6 203.943 1043.96 203.379C1043.31 202.815 1042.53 202.507 1041.73 202.505H1003.66C1002.82 202.504 1002.02 202.243 1001.39 201.764C1000.75 201.286 1000.33 200.622 1000.18 199.885C997.748 186.64 994.966 186.661 991.839 199.945C991.661 200.669 991.075 201.318 990.177 201.783C989.279 202.249 988.124 202.504 986.904 202.505H927.507C926.699 202.505 925.924 202.826 925.353 203.397C924.782 203.969 924.461 204.744 924.461 205.552V236.022C924.461 236.83 923.98 237.605 923.123 238.177C922.266 238.748 921.104 239.069 919.892 239.069H828.512C827.457 239.065 826.445 239.337 825.693 239.828C824.941 240.318 824.509 240.986 824.491 241.69L824.065 278.68C824.049 279.715 823.823 280.693 823.413 281.501C823.004 282.31 822.427 282.917 821.75 283.251C790.863 298.913 799.819 244.737 802.499 230.172C808.321 198.781 807.829 168.109 807.335 137.282C807.219 130.048 807.103 122.806 807.068 115.543C807.058 113.025 806.093 110.603 804.365 108.761C802.637 106.919 800.273 105.794 797.747 105.61C779.467 104.221 761.43 104.053 743.359 103.885C732.885 103.788 722.401 103.69 711.85 103.355C699.829 102.989 694.122 108.596 694.732 120.174C696.113 146.216 695.849 166.733 693.94 181.724C693.832 182.626 693.43 183.505 692.775 184.267C692.121 185.029 691.239 185.646 690.224 186.051L605.91 219.203C604.644 219.704 603.548 220.419 602.773 221.249C601.998 222.079 601.583 222.982 601.585 223.834V268.016C601.585 269.528 601.412 270.939 601.093 272.029C600.774 273.119 600.326 273.829 599.818 274.049C595.148 276.08 590.274 276.466 585.198 275.207C584.667 275.087 584.175 274.452 583.807 273.414C583.438 272.377 583.219 271.004 583.187 269.539L582.639 241.69C582.621 240.987 582.203 240.318 581.473 239.828C580.744 239.338 579.762 239.065 578.74 239.069L545.173 239.13C544.807 239.135 544.446 239.029 544.109 238.816C543.772 238.603 543.467 238.289 543.211 237.891C542.956 237.494 542.755 237.021 542.621 236.501C542.487 235.982 542.423 235.425 542.432 234.864L542.858 170.45C542.877 169.11 543.071 167.857 543.428 166.774C543.785 165.692 544.297 164.806 544.929 164.173C552.89 156.333 551.082 152.189 539.507 151.742C538.826 151.725 538.045 151.469 537.223 150.995C536.4 150.52 535.556 149.838 534.756 148.999L483.888 96.2859C483.413 95.7906 482.849 95.3898 482.231 95.1079C481.613 94.826 480.954 94.6688 480.293 94.646C479.632 94.6232 478.983 94.7353 478.386 94.9752C477.789 95.2152 477.257 95.5783 476.821 96.0421L426.074 148.817C425.259 149.688 424.364 150.387 423.457 150.862C422.55 151.337 421.654 151.575 420.835 151.559C410.682 151.356 408.509 155.053 414.317 162.65C415.113 163.669 415.78 164.651 416.25 165.496C416.721 166.341 416.978 167.02 416.997 167.464L419.069 229.928C419.11 231.113 418.897 232.293 418.444 233.399C417.991 234.506 417.307 235.515 416.431 236.368C415.556 237.221 414.508 237.9 413.349 238.364C412.191 238.828 410.945 239.068 409.687 239.069H377.704C376.794 239.06 375.914 239.534 375.254 240.389C374.593 241.243 374.204 242.411 374.171 243.64L371.429 382.279C371.391 383.531 371.21 384.684 370.904 385.647C370.597 386.61 370.172 387.356 369.663 387.825C366.738 390.384 363.956 390.486 361.317 388.13C360.732 387.62 360.256 386.823 359.927 385.805C359.599 384.787 359.427 383.578 359.428 382.279V228.405C359.428 227.193 359.107 226.03 358.536 225.173C357.965 224.316 357.19 223.834 356.382 223.834L331.892 223.956C329.156 223.955 326.531 222.814 324.591 220.781C322.65 218.749 321.552 215.991 321.536 213.109L321.414 191.84C321.41 191.423 321.286 191.011 321.051 190.628C320.815 190.245 320.473 189.9 320.042 189.611C319.612 189.322 319.103 189.096 318.543 188.945C317.984 188.794 317.386 188.722 316.784 188.732L217.423 189.768C216.705 189.785 216.021 190.171 215.52 190.844C215.018 191.516 214.739 192.421 214.743 193.364V234.499C214.743 235.711 214.422 236.873 213.851 237.731C213.28 238.588 212.505 239.069 211.697 239.069H191.898C191.096 239.08 190.313 238.61 189.711 237.759C189.109 236.907 188.736 235.739 188.669 234.499L187.451 210.123C187.419 209.303 187.072 208.528 186.481 207.96C185.89 207.392 185.102 207.075 184.283 207.076H166.007C164.887 207.078 163.812 206.722 163.014 206.083C162.216 205.445 161.759 204.575 161.743 203.663L161.438 190.317C161.424 189.492 161.1 188.704 160.534 188.114C159.967 187.525 159.201 187.179 158.392 187.148L139.69 186.478C139.194 186.433 138.717 185.867 138.355 184.894C137.993 183.921 137.773 182.613 137.74 181.237L136.461 126.39C136.445 125.371 136.024 124.397 135.286 123.67C134.549 122.944 133.551 122.521 132.501 122.49L76.0891 121.576C74.9258 121.562 73.7708 121.833 72.6904 122.374C71.61 122.915 70.6254 123.715 69.7933 124.729C68.9612 125.742 68.298 126.949 67.8416 128.28C67.3852 129.611 67.1447 131.04 67.1339 132.485L67.0729 150.767C67.0773 151.721 66.6242 152.646 65.8077 153.349C64.9911 154.053 63.8737 154.481 62.6867 154.545L48.7969 155.337C47.957 155.387 47.167 155.883 46.5892 156.721C46.0114 157.56 45.6896 158.678 45.69 159.847V184.223C45.6876 184.65 45.5682 185.069 45.3395 185.454C45.1107 185.839 44.7774 186.183 44.3602 186.463C43.9431 186.743 43.451 186.954 42.9147 187.082C42.3785 187.21 41.8093 187.254 41.2429 187.209C26.947 186.031 13.1993 186.945 0 189.951V420V591V898H3045V591H3046Z" fill="black"/>
</svg>
