<svg width="226" height="226" viewBox="0 0 226 226" fill="none" xmlns="http://www.w3.org/2000/svg">
<path d="M80.6798 61.9426C74.3594 61.9426 69.3934 67.0215 69.3934 73.229C69.3934 79.4365 74.4723 84.5153 80.6798 84.5153C86.8872 84.5153 91.9656 79.4365 91.9656 73.229C91.9656 67.0215 86.8872 61.9426 80.6798 61.9426Z" fill="#000"/>
<path d="M219.632 34.3105C210.152 12.3021 189.272 0 160.153 0H65.5737C29.3445 0 0 29.3445 0 65.5737V160.153C0 189.272 12.3021 210.152 34.3105 219.632C36.4549 220.535 38.9379 219.971 40.518 218.391L218.391 40.518C220.084 38.825 220.648 36.342 219.632 34.3105ZM96.2725 115.572C91.8709 119.861 86.1148 121.893 80.3588 121.893C74.6028 121.893 68.8467 119.748 64.445 115.572C52.933 104.737 40.2923 87.4692 45.1454 66.928C49.4342 48.3056 65.9123 39.9537 80.3588 39.9537C94.8053 39.9537 111.283 48.3056 115.572 67.0409C120.312 87.4692 107.672 104.737 96.2725 115.572Z" fill="#000"/>
<path d="M197.16 209.131C199.643 211.614 199.305 215.677 196.257 217.37C186.325 222.9 174.249 225.722 160.141 225.722H65.5615C62.2885 225.722 60.9341 221.884 63.1914 219.627L131.361 151.457C133.618 149.2 137.117 149.2 139.374 151.457L197.16 209.131Z" fill="#000"/>
<path d="M225.746 65.5615V160.141C225.746 174.249 222.925 186.438 217.394 196.257C215.701 199.305 211.638 199.53 209.155 197.16L151.369 139.374C149.112 137.117 149.112 133.618 151.369 131.361L219.539 63.1914C221.909 60.9341 225.746 62.2885 225.746 65.5615Z" fill="#000"/>
</svg>
